<?xml version="1.0" standalone="no"?>
<!DOCTYPE svg PUBLIC "-//W3C//DTD SVG 20010904//EN"
 "http://www.w3.org/TR/2001/REC-SVG-20010904/DTD/svg10.dtd">
<svg version="1.0" xmlns="http://www.w3.org/2000/svg"
 width="256.000000pt" height="256.000000pt" viewBox="0 0 256.000000 256.000000"
 preserveAspectRatio="xMidYMid meet">

<g transform="translate(0.000000,256.000000) scale(0.100000,-0.100000)"
fill="#000000" stroke="none">
<path d="M391 1976 c-8 -9 -10 -134 -9 -442 l3 -429 393 -3 c309 -2 392 -5
386 -15 -3 -6 28 25 70 70 89 95 130 123 179 123 26 0 41 -7 56 -26 12 -15 21
-34 21 -43 0 -13 2 -13 9 -2 7 11 10 10 14 -5 4 -16 5 -17 6 -1 0 9 7 17 15
17 11 0 13 -10 9 -39 -4 -31 -1 -43 16 -60 28 -28 94 -28 139 -1 35 21 67 82
58 107 -10 25 -39 10 -48 -24 -13 -50 -63 -76 -112 -57 -25 10 -19 51 9 70 14
9 25 24 25 33 0 15 -8 17 -53 13 -46 -4 -57 -1 -81 20 -26 22 -29 31 -33 108
-3 68 -2 83 8 73 7 -7 24 -13 37 -13 21 0 22 2 12 15 -10 12 -10 15 3 15 9 0
19 -4 22 -10 3 -5 13 -10 21 -10 8 0 13 4 10 8 -2 4 13 9 35 9 34 2 41 -2 54
-28 18 -33 30 -37 43 -12 7 11 6 23 -2 35 -9 16 -8 21 7 29 23 14 9 33 -45 60
l-38 19 0 193 c0 137 -3 196 -12 205 -19 19 -1211 17 -1227 -2z m65 -26 c0
-11 -8 -17 -21 -17 -13 0 -21 6 -21 17 0 11 8 18 21 18 13 0 21 -7 21 -18z
m532 -117 c-32 -2 -84 -2 -115 0 -32 2 -6 3 57 3 63 0 89 -1 58 -3z m120 -90
c-75 -2 -201 -2 -280 0 -79 1 -17 3 137 3 154 0 218 -2 143 -3z m355 0 c-29
-2 -77 -2 -105 0 -29 2 -6 3 52 3 58 0 81 -1 53 -3z m-575 -90 c-38 -2 -98 -2
-135 0 -38 2 -7 3 67 3 74 0 105 -1 68 -3z m482 -3 c0 -6 -65 -10 -175 -10
-110 0 -175 4 -175 10 0 6 65 10 175 10 110 0 175 -4 175 -10z m-110 -90 c0
-6 -75 -10 -205 -10 -130 0 -205 4 -205 10 0 6 75 10 205 10 130 0 205 -4 205
-10z m-212 -97 c-43 -2 -113 -2 -155 0 -43 1 -8 3 77 3 85 0 120 -2 78 -3z
m-160 -90 c-38 -2 -98 -2 -135 0 -38 2 -7 3 67 3 74 0 105 -1 68 -3z m285 0
c-29 -2 -77 -2 -105 0 -29 2 -6 3 52 3 58 0 81 -1 53 -3z m-65 -90 c-49 -2
-127 -2 -175 0 -49 1 -9 3 87 3 96 0 136 -2 88 -3z m642 -64 c0 -27 -35 -81
-61 -94 -38 -20 -98 -19 -121 2 -30 27 -19 93 16 93 6 0 5 -5 -2 -12 -7 -7
-12 -21 -12 -33 0 -30 19 -45 58 -45 39 0 92 46 92 79 0 12 6 21 15 21 8 0 15
-5 15 -11z"/>
<path d="M1756 1447 c3 -10 9 -15 12 -12 3 3 0 11 -7 18 -10 9 -11 8 -5 -6z"/>
<path d="M1557 1420 c3 -11 9 -20 14 -20 5 0 9 9 9 20 0 11 -6 20 -14 20 -9 0
-12 -7 -9 -20z"/>
<path d="M1725 1430 c3 -5 11 -10 16 -10 6 0 7 5 4 10 -3 6 -11 10 -16 10 -6
0 -7 -4 -4 -10z"/>
<path d="M1477 1400 c3 -11 9 -20 14 -20 5 0 9 9 9 20 0 11 -6 20 -14 20 -9 0
-12 -7 -9 -20z"/>
<path d="M1713 1375 c-3 -9 -3 -18 -1 -21 3 -3 8 4 11 16 6 23 -1 27 -10 5z"/>
<path d="M1540 1340 c-8 -5 -10 -10 -5 -10 6 0 17 5 25 10 8 5 11 10 5 10 -5
0 -17 -5 -25 -10z"/>
<path d="M1674 1298 l-19 -23 23 19 c21 18 27 26 19 26 -2 0 -12 -10 -23 -22z"/>
<path d="M1415 1159 c-9 -17 -19 -29 -21 -26 -5 5 -37 -25 -64 -59 -8 -10 8 1
35 24 44 38 85 92 71 92 -3 0 -13 -14 -21 -31z"/>
<path d="M1288 1163 c7 -3 16 -2 19 1 4 3 -2 6 -13 5 -11 0 -14 -3 -6 -6z"/>
<path d="M1476 1135 c-9 -14 -23 -37 -32 -52 l-16 -28 20 24 c24 29 55 81 49
81 -3 0 -12 -11 -21 -25z"/>
<path d="M1318 890 l-103 -159 -17 32 c-29 54 -20 27 36 -110 65 -157 71 -169
80 -154 4 6 2 11 -3 11 -30 0 -4 33 49 62 33 18 60 35 60 38 0 3 -34 3 -76 2
-56 -3 -79 0 -85 10 -14 22 -10 28 18 28 26 0 26 -1 7 -16 -18 -15 -18 -15 3
-4 38 18 36 30 -5 30 -34 0 -41 4 -52 29 -11 27 -7 36 87 182 117 181 115 179
110 179 -3 0 -52 -72 -109 -160z"/>
<path d="M1401 934 c0 -21 4 -59 9 -84 6 -34 7 -25 3 35 -6 84 -14 115 -12 49z"/>
<path d="M1889 917 c37 -55 44 -86 17 -87 -11 -1 50 -30 62 -30 4 0 -4 7 -16
16 -27 19 -29 38 -2 29 14 -5 11 2 -13 28 -18 18 -45 49 -60 68 -15 19 -10 8
12 -24z"/>
<path d="M1112 899 c10 -5 24 -19 33 -32 8 -12 15 -17 15 -11 0 15 -39 54 -53
54 -7 0 -4 -5 5 -11z"/>
<path d="M541 874 c0 -11 3 -14 6 -6 3 7 2 16 -1 19 -3 4 -6 -2 -5 -13z"/>
<path d="M1160 835 c0 -5 5 -17 10 -25 5 -8 10 -10 10 -5 0 6 -5 17 -10 25 -5
8 -10 11 -10 5z"/>
<path d="M1725 809 c-24 -4 1 -5 60 -2 55 3 102 7 104 9 7 7 -122 1 -164 -7z"/>
<path d="M1633 793 c9 -2 23 -2 30 0 6 3 -1 5 -18 5 -16 0 -22 -2 -12 -5z"/>
<path d="M1588 783 c7 -3 16 -2 19 1 4 3 -2 6 -13 5 -11 0 -14 -3 -6 -6z"/>
<path d="M1518 764 c-16 -8 -28 -17 -28 -20 0 -2 12 2 28 9 15 8 34 17 42 20
13 5 13 5 0 6 -8 0 -27 -7 -42 -15z"/>
<path d="M1446 703 c-14 -20 -26 -44 -26 -53 1 -8 7 -1 14 15 7 17 21 39 31
48 9 10 15 20 12 23 -3 3 -17 -12 -31 -33z"/>
<path d="M1559 703 c-13 -16 -12 -17 4 -4 16 13 21 21 13 21 -2 0 -10 -8 -17
-17z"/>
<path d="M1490 679 c-7 -11 -10 -23 -7 -25 2 -2 9 7 15 21 14 30 7 33 -8 4z"/>
<path d="M620 675 c0 -5 5 -17 10 -25 5 -8 10 -10 10 -5 0 6 -5 17 -10 25 -5
8 -10 11 -10 5z"/>
<path d="M1595 669 c-4 -6 -5 -12 -2 -15 2 -3 7 2 10 11 7 17 1 20 -8 4z"/>
<path d="M2339 643 l-24 -26 27 19 c15 10 28 22 28 27 0 12 -5 8 -31 -20z"/>
<path d="M519 643 c-13 -16 -12 -17 4 -4 9 7 17 15 17 17 0 8 -8 3 -21 -13z"/>
<path d="M1471 624 c0 -11 3 -14 6 -6 3 7 2 16 -1 19 -3 4 -6 -2 -5 -13z"/>
<path d="M479 613 c-13 -16 -12 -17 4 -4 16 13 21 21 13 21 -2 0 -10 -8 -17
-17z"/>
<path d="M2289 603 c-13 -16 -12 -17 4 -4 16 13 21 21 13 21 -2 0 -10 -8 -17
-17z"/>
<path d="M1569 585 c-4 -24 -1 -31 12 -31 11 0 15 4 10 11 -5 5 -11 19 -13 30
-3 15 -5 13 -9 -10z"/>
<path d="M439 583 c-13 -16 -12 -17 4 -4 9 7 17 15 17 17 0 8 -8 3 -21 -13z"/>
<path d="M1471 591 c-1 -8 -9 -12 -24 -9 -13 3 -24 0 -24 -6 0 -6 12 -12 26
-13 14 -1 41 -4 58 -6 18 -3 31 -1 28 3 -3 4 -14 6 -25 3 -14 -4 -22 1 -29 18
-5 13 -10 18 -10 10z"/>
<path d="M1640 591 c0 -5 9 -7 20 -4 11 3 20 7 20 9 0 2 -9 4 -20 4 -11 0 -20
-4 -20 -9z"/>
<path d="M1717 583 c18 -2 50 -2 70 0 21 2 7 4 -32 4 -38 0 -55 -2 -38 -4z"/>
<path d="M2249 573 c-13 -16 -12 -17 4 -4 16 13 21 21 13 21 -2 0 -10 -8 -17
-17z"/>
<path d="M2349 573 c-13 -16 -12 -17 4 -4 16 13 21 21 13 21 -2 0 -10 -8 -17
-17z"/>
<path d="M399 553 c-13 -16 -12 -17 4 -4 9 7 17 15 17 17 0 8 -8 3 -21 -13z"/>
<path d="M1620 560 c-9 -6 -10 -10 -3 -10 6 0 15 5 18 10 8 12 4 12 -15 0z"/>
<path d="M1384 544 c-18 -14 -18 -15 4 -4 12 6 22 13 22 15 0 8 -5 6 -26 -11z"/>
<path d="M2209 543 c-13 -16 -12 -17 4 -4 16 13 21 21 13 21 -2 0 -10 -8 -17
-17z"/>
<path d="M1414 534 c-18 -14 -18 -15 4 -4 12 6 22 13 22 15 0 8 -5 6 -26 -11z"/>
<path d="M359 523 c-13 -16 -12 -17 4 -4 16 13 21 21 13 21 -2 0 -10 -8 -17
-17z"/>
<path d="M2169 513 c-13 -16 -12 -17 4 -4 16 13 21 21 13 21 -2 0 -10 -8 -17
-17z"/>
<path d="M694 497 c3 -10 6 -21 6 -23 0 -2 139 -4 308 -4 264 0 311 2 328 16
18 15 18 15 -3 5 -14 -7 -132 -11 -322 -11 -275 0 -301 1 -311 18 -11 16 -11
16 -6 -1z"/>
<path d="M2239 493 c-13 -16 -12 -17 4 -4 16 13 21 21 13 21 -2 0 -10 -8 -17
-17z"/>
<path d="M2129 483 c-13 -16 -12 -17 4 -4 16 13 21 21 13 21 -2 0 -10 -8 -17
-17z"/>
<path d="M289 473 c-13 -16 -12 -17 4 -4 9 7 17 15 17 17 0 8 -8 3 -21 -13z"/>
<path d="M2199 463 c-13 -16 -12 -17 4 -4 16 13 21 21 13 21 -2 0 -10 -8 -17
-17z"/>
<path d="M249 443 c-13 -16 -12 -17 4 -4 16 13 21 21 13 21 -2 0 -10 -8 -17
-17z"/>
<path d="M2059 433 c-13 -16 -12 -17 4 -4 16 13 21 21 13 21 -2 0 -10 -8 -17
-17z"/>
<path d="M2159 433 c-13 -16 -12 -17 4 -4 16 13 21 21 13 21 -2 0 -10 -8 -17
-17z"/>
<path d="M206 411 c-12 -13 -16 -30 -13 -53 l4 -33 1 38 2 37 914 0 c503 0
917 3 919 8 3 4 -404 6 -905 4 -610 -1 -907 1 -903 8 10 16 -1 11 -19 -9z"/>
<path d="M2119 403 c-13 -16 -12 -17 4 -4 16 13 21 21 13 21 -2 0 -10 -8 -17
-17z"/>
<path d="M2079 373 c-13 -16 -12 -17 4 -4 16 13 21 21 13 21 -2 0 -10 -8 -17
-17z"/>
</g>
</svg>
