<?xml version="1.0" standalone="no"?>
<!DOCTYPE svg PUBLIC "-//W3C//DTD SVG 20010904//EN"
 "http://www.w3.org/TR/2001/REC-SVG-20010904/DTD/svg10.dtd">
<svg version="1.0" xmlns="http://www.w3.org/2000/svg"
 width="920.000000pt" height="512.000000pt" viewBox="0 0 920.000000 512.000000"
 preserveAspectRatio="xMidYMid meet">

<g transform="translate(0.000000,512.000000) scale(0.100000,-0.100000)"
fill="#000000" stroke="none">
<path d="M5387 4656 c-54 -20 -111 -60 -140 -98 -14 -18 -156 -307 -317 -643
-401 -838 -693 -1446 -1055 -2200 -475 -990 -430 -887 -430 -980 0 -70 4 -87
30 -134 36 -65 83 -105 153 -131 108 -41 216 -18 296 63 45 46 70 92 223 412
94 198 336 704 538 1125 850 1773 1053 2197 1064 2229 16 48 14 120 -6 181
-44 138 -220 224 -356 176z"/>
<path d="M2992 4013 c-86 -30 -122 -79 -520 -703 -208 -327 -389 -615 -402
-639 -32 -63 -37 -143 -13 -211 23 -66 773 -1244 833 -1308 56 -60 118 -86
205 -86 84 -1 141 23 204 86 78 79 104 225 56 317 -9 19 -166 266 -347 550
-182 284 -331 521 -331 527 0 6 147 242 327 524 181 282 339 536 352 564 84
180 -60 397 -261 395 -33 0 -79 -7 -103 -16z"/>
<path d="M5994 4006 c-74 -34 -117 -78 -149 -147 -24 -53 -27 -71 -23 -128 3
-41 14 -83 28 -111 13 -25 169 -274 348 -554 179 -280 325 -514 325 -520 0 -6
-62 -108 -138 -226 -400 -623 -546 -855 -555 -888 -37 -135 30 -281 159 -344
36 -18 61 -23 116 -22 132 3 193 48 307 225 36 57 211 331 389 609 191 299
331 527 342 560 23 67 18 150 -14 212 -47 93 -784 1236 -822 1276 -78 80 -211
105 -313 58z"/>
</g>
</svg>
